<svg xmlns="http://www.w3.org/2000/svg" viewBox="0 0 500 500">
  
  <rect width="500" height="500" style="fill: #494757;"></rect>
  <path style="fill: rgb(249, 223, 109);"
    d="M 135.605 57.602 H 240.82 A 6 6 0 0 1 246.82 63.602 V 238.817 A 8 8 0 0 1 238.82 246.817 H 65.605 A 8 8 0 0 1 57.605 238.817 V 135.602 A 78 78 0 0 1 135.605 57.602 Z"
    shape="rect 57.605 57.602 189.215 189.215 78 6 8 8 1@44fcc916"></path>
  <path style="fill: rgb(160, 195, 90);"
    d="M 261.18 57.602 H 364.395 A 78 78 0 0 1 442.395 135.602 V 238.817 A 8 8 0 0 1 434.395 246.817 H 261.18 A 8 8 0 0 1 253.18 238.817 V 65.602 A 8 8 0 0 1 261.18 57.602 Z"
    shape="rect 253.18 57.602 189.215 189.215 8 78 8 8 1@0c9aa616"></path>
  <path style="fill: rgb(176, 196, 239);"
    d="M 65.605 253.183 H 238.82 A 8 8 0 0 1 246.82 261.183 V 434.398 A 8 8 0 0 1 238.82 442.398 H 135.605 A 78 78 0 0 1 57.605 364.398 V 261.183 A 8 8 0 0 1 65.605 253.183 Z"
    shape="rect 57.605 253.183 189.215 189.215 8 8 8 78 1@0400d209"></path>
  <path style="fill: rgb(186, 129, 197);"
    d="M 261.18 253.183 H 434.395 A 8 8 0 0 1 442.395 261.183 V 364.398 A 78 78 0 0 1 364.395 442.398 H 261.18 A 8 8 0 0 1 253.18 434.398 V 261.183 A 8 8 0 0 1 261.18 253.183 Z"
    shape="rect 253.18 253.183 189.215 189.215 8 8 78 8 1@ea34c5b0"></path>
</svg>